# xmcd
#
# Track frame offsets:
#	150
#	10814
#	24014
#	33681
#	51150
#	70139
#	86007
#	97345
#	108180
#	118645
#	130220
#	146037
#
# Disc length: 2084 seconds
#
# Revision: 1
# Processed by: cddbd v1.5.2PL0 Copyright (c) Steve Scherf et al.
# Submitted via: audiograbber 1.83.01
#
DISCID=a108220c
DTITLE=Ernie Thacker - The Hangman
DYEAR=2009
DGENRE=Bluegrass
TTITLE0=The Ballad of Charlie Dill
TTITLE1=Detroit City Chill
TTITLE2=This Drinkin' Will Kill Me
TTITLE3=Friday Once Again
TTITLE4=The Hangman
TTITLE5=Keith How Many
TTITLE6=I Wish You Knew
TTITLE7=Church Upon the Hill
TTITLE8=Pickin' Up the Pieces
TTITLE9=Rollin' on These Rubber Wheels
TTITLE10=Sunday Morning Coming Down
TTITLE11=Word of Mouth
EXTD=
EXTT0=
EXTT1=
EXTT2=
EXTT3=
EXTT4=
EXTT5=
EXTT6=
EXTT7=
EXTT8=
EXTT9=
EXTT10=
EXTT11=
PLAYORDER=
